<!DOCTYPE svg PUBLIC "-//W3C//DTD SVG 1.1//EN" "http://www.w3.org/Graphics/SVG/1.1/DTD/svg11.dtd">
<!-- Uploaded to: SVG Repo, www.svgrepo.com, Transformed by: SVG Repo Mixer Tools -->
<svg fill="#7af500" version="1.1" id="Capa_1" xmlns="http://www.w3.org/2000/svg" xmlns:xlink="http://www.w3.org/1999/xlink" width="800px" height="800px" viewBox="-8.13 -8.13 97.55 97.55" xml:space="preserve" stroke="#7af500" transform="matrix(1, 0, 0, 1, 0, 0)rotate(0)">
<g id="SVGRepo_bgCarrier" stroke-width="0" transform="translate(0,0), scale(1)"/>
<g id="SVGRepo_tracerCarrier" stroke-linecap="round" stroke-linejoin="round" stroke="#CCCCCC" stroke-width="0.162572"/>
<g id="SVGRepo_iconCarrier"> <g> <path d="M79.423,48.743v-2.244h-1.98v-2.092h-1.996v-33.77c0-1.483-1.211-2.686-2.685-2.686H2.686C1.204,7.951,0,9.156,0,10.637 v46.717c0,1.482,1.21,2.681,2.686,2.681H54.62v4.142h2.092v3.661h1.647v3.372v1.938v0.188h18.965v-1.627V71.22v-3.774h2.014v-5.529 h1.948V48.743H79.423L79.423,48.743z M72.757,33.974c0.929,0,1.688,0.752,1.688,1.687c0,0.934-0.753,1.686-1.688,1.686 c-0.933,0-1.686-0.751-1.686-1.686C71.071,34.726,71.831,33.974,72.757,33.974z M50.725,54.665H5.368V13.323h64.7v29.735h-0.154 h-0.306h-1.632v-2.014h-3.523v-7.641h-1.8v-2.015h-4.293v2.015h-2.019v15.939h-1.917v-0.901h-3.216H49.23h-0.153v5.563h1.647 V54.665L50.725,54.665z M79.155,61.387h-1.94v4.263h-2.017v5.57H60.489v-3.622h-1.646v-4.491h-2.094v-3.065v-0.598h-1.875v-2.095 v-1.72h-2.017v-0.96v-0.983h-1.643v-3.109h3.106v1.695h2.021v2.397v2.68v0.849h2.121v-0.849v-2.68V33.515h3.859v17.251h2.129 v-7.589h3.337v8.419h2.124v-6.4h0.154h2.686h0.415v7.747h2.126v-6.401h0.144h1.455v2.35h2.259v12.5h0.004V61.387z M36.061,20.389 c-7.5,0-13.578,6.083-13.578,13.578c0,7.501,6.083,13.578,13.578,13.578c7.495,0,13.578-6.081,13.578-13.578 C49.639,26.472,43.561,20.389,36.061,20.389z M31.438,41.555V26.392l13.134,7.582L31.438,41.555z"/> </g> </g>
</svg>